<svg xmlns="http://www.w3.org/2000/svg" xmlns:xlink="http://www.w3.org/1999/xlink" width="500" height="207.22" viewBox="0 0 500 207.22"><defs><linearGradient id="b3aed4c7-c4cc-4196-9489-80c867b5aeec" x1="23.1" y1="210.88" x2="316.81" y2="210.88" gradientTransform="translate(4.01 -4.78) rotate(1.04)" gradientUnits="userSpaceOnUse"><stop offset="0" stop-color="#5cb8ff"/><stop offset="1" stop-color="#2f2569"/></linearGradient><linearGradient id="a5b8b850-c490-4074-90cd-b86930f57887" x1="268.2" y1="198.4" x2="465.46" y2="235.6" xlink:href="#b3aed4c7-c4cc-4196-9489-80c867b5aeec"/><linearGradient id="b2c9160e-84d0-4185-a800-760c7be69565" x1="349.99" y1="219.04" x2="476.03" y2="209.71" xlink:href="#b3aed4c7-c4cc-4196-9489-80c867b5aeec"/><linearGradient id="a5f13890-69f7-4c5a-9ddb-837d968f2f0f" x1="44" y1="239.69" x2="45.61" y2="252.58" gradientTransform="translate(4.01 -4.78) rotate(1.04)" gradientUnits="userSpaceOnUse"><stop offset="0" stop-color="#fff"/><stop offset="1" stop-color="#686869"/></linearGradient><linearGradient id="e34dbff8-a1be-4739-8884-1583cbdf960a" x1="142.12" y1="202.96" x2="316.81" y2="202.96" xlink:href="#b3aed4c7-c4cc-4196-9489-80c867b5aeec"/><linearGradient id="ec61988f-0b46-44d4-9922-ff93e95dba81" x1="124.71" y1="190.53" x2="385.94" y2="190.53" xlink:href="#b3aed4c7-c4cc-4196-9489-80c867b5aeec"/><linearGradient id="f3a8d978-3bbd-4e25-83c6-c2caffc7066e" x1="338.08" y1="215.14" x2="419.3" y2="230.46" xlink:href="#b3aed4c7-c4cc-4196-9489-80c867b5aeec"/><linearGradient id="ad89165b-6f02-4973-b9b5-a996d0f45822" x1="437.35" y1="227.37" x2="480.56" y2="227.37" gradientTransform="matrix(1, -0.02, 0.02, 1, -4.56, 10.43)" gradientUnits="userSpaceOnUse"><stop offset="0" stop-color="#ff8778"/><stop offset="1" stop-color="#9c122b"/></linearGradient><clipPath id="f5598a38-540c-43e7-a193-e11756d1ebac" transform="translate(0 -137.39)"><path d="M78.06,310.09l11.53-49.5H99.93l11,49.5h-9.86l-1.66-8.67H89.45l-1.52,8.67Zm13.19-16.37h6.58q-1-5.19-1.83-10.87t-1.43-12q-.75,5.55-1.57,11.27T91.25,293.72Zm60.82-33.13v31.09a65,65,0,0,1-.34,8.09,13.09,13.09,0,0,1-1.12,4,11.54,11.54,0,0,1-5.2,5.27,19.56,19.56,0,0,1-8.77,1.72,19.78,19.78,0,0,1-8.8-1.72,11.31,11.31,0,0,1-5.2-5.27,12.57,12.57,0,0,1-1.15-4,64.6,64.6,0,0,1-.34-8V260.59H131v31.87c0,4.05.42,6.66,1.24,7.82s2.29,1.75,4.39,1.75,3.62-.6,4.43-1.78,1.2-3.79,1.2-7.79V260.59Zm19.08,49.5V269.75h-7.56v-9.16h25.06v9.16h-7.56v40.34Zm61.23-24q0,11.32-4.75,18A14.83,14.83,0,0,1,215,310.71a14.63,14.63,0,0,1-12.78-6.7q-4.57-6.7-4.58-18.63t4.63-18.67a15.32,15.32,0,0,1,25.51.15Q232.38,273.79,232.38,286.06ZM215,301.28c2.53,0,4.43-1.32,5.68-4s1.88-6.62,1.88-11.93-.62-9.36-1.88-12-3.15-4-5.68-4-4.42,1.31-5.66,3.95-1.87,6.64-1.87,12,.63,9.34,1.87,12S212.42,301.28,215,301.28Zm50.27,8.81,4.85-49.5h12.71l2.58,18.89q.58,4.31,1,8.25t.62,7.68q.62-6.54,1-10.32t.69-5.61l3.19-18.89h12.58l4.17,49.5h-10l-1.05-23c0-.55-.06-1.36-.11-2.44-.29-6-.44-10.94-.44-14.79l-6.44,40.21h-7.15l-6.07-40.48q0,5.06-.61,14.44c-.09,1.43-.16,2.49-.21,3.19L275,310.09Zm51.53,0,11.53-49.5h10.34l11,49.5h-9.87l-1.66-8.67h-9.94l-1.52,8.67Zm13.19-16.37h6.58q-1-5.19-1.83-10.87t-1.43-12q-.74,5.55-1.57,11.27T329.94,293.72Zm30.2,16.37v-49.5h10.28q8.47,0,12.29,3.33t3.81,10.61a16.22,16.22,0,0,1-1.95,8.49,10.37,10.37,0,0,1-5.88,4.49l9.49,22.58h-10.4l-8.07-20.47v20.47Zm9.57-28,.56,0,.55,0a6.23,6.23,0,0,0,4.85-1.79A7.63,7.63,0,0,0,377.3,275q0-3.57-1.49-5.19T371,268.22l-.78,0-.51.05Zm33.89,28V269.75H396v-9.16H421.1v9.16h-7.56v40.34Z" fill="none"/></clipPath><linearGradient id="aa20322e-d4b0-41de-a221-e03589f3332f" x1="58.21" y1="148.32" x2="459.89" y2="155.64" gradientTransform="matrix(1, 0, 0, 1, 0, 0)" xlink:href="#b3aed4c7-c4cc-4196-9489-80c867b5aeec"/></defs><g id="a3227f43-ecc6-4cd6-9675-96d421f270c4" data-name="BACKGROUND" opacity="0"><rect width="500" height="207.22" fill="#1d1d1f"/></g><g id="ef2f5495-a058-40e5-9473-2f31012b6db3" data-name="OBJECTS"><path d="M317.45,183c-4.3,24.38-37.35,35.38-79.9,40.26-82.48,9.45-200.69-4.13-214.8,12.14,14.11-19.3,64.11-23.15,119.23-24.8h.25C216.53,208.3,300.07,210,317.45,183Z" transform="translate(0 -137.39)" fill="url(#b3aed4c7-c4cc-4196-9489-80c867b5aeec)"/><path d="M480.42,206.72c-71.85,18.25-134.23-36.9-242.17-27.91-27.12,2.27-113.44,32.36-113.44,32.36,21.2-13,95.6-37.6,113.07-39.71,15.7-1.89,76.43-11.08,148.73,10h0c6.27,1.85,12.61,3.9,19,6.21C452.08,204.44,480.42,206.72,480.42,206.72Z" transform="translate(0 -137.39)" fill="url(#a5b8b850-c490-4074-90cd-b86930f57887)"/><path d="M480.42,206.72C452.26,238.48,384.3,225.78,327,223.55c-17.86-.71-34.69-.4-49,2.58,51.67-24,107.63-16.56,148.83-13.37h0C451.15,214.63,470.31,215.07,480.42,206.72Z" transform="translate(0 -137.39)" fill="url(#b2c9160e-84d0-4185-a800-760c7be69565)"/><path d="M69.92,234.73c-4.61,12.66-20.74,12.68-33.86,12.43-8-.15-15-.4-17.35,2.13C21.87,237.12,41,234,55.25,233.77A73.63,73.63,0,0,1,69.92,234.73Z" transform="translate(0 -137.39)" fill="url(#a5f13890-69f7-4c5a-9ddb-837d968f2f0f)"/><path d="M317.45,183c-4.3,24.38-37.35,35.38-79.9,40.26-33.46,1.55-46.17-13.86-95.32-12.66C216.53,208.3,300.07,210,317.45,183Z" transform="translate(0 -137.39)" fill="url(#e34dbff8-a1be-4739-8884-1583cbdf960a)"/><path d="M386.61,181.51c-45.65-7.14-85.38-13.46-148.36-2.7-27.12,2.27-113.44,32.36-113.44,32.36,21.2-13,95.6-37.6,113.07-39.71C253.58,169.57,314.31,160.38,386.61,181.51Z" transform="translate(0 -137.39)" fill="url(#ec61988f-0b46-44d4-9922-ff93e95dba81)"/><path d="M426.83,212.76c-34.27-.63-44.36,11.79-99.87,10.78h0c-17.86-.71-34.69-.4-49,2.58C329.67,202.16,385.63,209.57,426.83,212.76Z" transform="translate(0 -137.39)" fill="url(#f3a8d978-3bbd-4e25-83c6-c2caffc7066e)"/><path d="M437.72,233.56c29.51-3.59,42.1-16.12,42.1-16.12C483.44,232.35,477.78,244.3,437.72,233.56Z" transform="translate(0 -137.39)" fill="url(#ad89165b-6f02-4973-b9b5-a996d0f45822)"/></g><g id="e0098d8e-6886-47cc-9f3d-e517706e45ef" data-name="TEXTS"><g clip-path="url(#f5598a38-540c-43e7-a193-e11756d1ebac)"><rect x="58.87" y="111.89" width="400.36" height="80.17" fill="url(#aa20322e-d4b0-41de-a221-e03589f3332f)"/></g></g></svg>